# This file uses centimeters as units for non-parametric coordinates.

mtllib Racket.mtl
g default
v 13.388556 0.615866 -0.450627
v 13.388556 0.523887 -0.857143
v 13.388556 0.380626 -1.179756
v 13.388556 0.200107 -1.386887
v 13.388556 0.000000 -1.458259
v 13.388556 -0.200107 -1.386887
v 13.388556 -0.380626 -1.179756
v 13.388556 -0.523887 -0.857143
v 13.388556 -0.615866 -0.450627
v 13.388556 -0.647560 0.000000
v 13.388556 -0.615866 0.450627
v 13.388556 -0.523887 0.857143
v 13.388556 -0.380626 1.179756
v 13.388556 -0.200107 1.386886
v 13.388556 -0.000000 1.458258
v 13.388556 0.200107 1.386886
v 13.388556 0.380626 1.179756
v 13.388556 0.523887 0.857143
v 13.388556 0.615866 0.450627
v 13.388556 0.647560 0.000000
v 0.153292 0.615866 -0.450627
v 0.153292 0.523887 -0.857143
v 0.153292 0.380626 -1.179756
v 0.153292 0.200107 -1.386887
v 0.153292 0.000000 -1.458259
v 0.153292 -0.200107 -1.386887
v 0.153292 -0.380626 -1.179756
v 0.153292 -0.523887 -0.857143
v 0.153292 -0.615866 -0.450627
v 0.153292 -0.647560 0.000000
v 0.153292 -0.615866 0.450627
v 0.153292 -0.523887 0.857143
v 0.153292 -0.380626 1.179756
v 0.153292 -0.200107 1.386886
v 0.153292 -0.000000 1.458258
v 0.153292 0.200107 1.386886
v 0.153292 0.380626 1.179756
v 0.153292 0.523887 0.857143
v 0.153292 0.615866 0.450627
v 0.153292 0.647560 0.000000
v 13.388556 0.000000 0.000000
v 0.153292 0.000000 0.000000
v -6.715929 -0.230038 -7.726891
v -8.873882 -0.230038 -7.348710
v -10.820599 -0.230038 -6.251185
v -12.365520 -0.230038 -4.541751
v -13.357422 -0.230038 -2.387740
v -13.699207 -0.230038 -0.000000
v -13.357422 -0.230038 2.387740
v -12.365519 -0.230038 4.541751
v -10.820597 -0.230038 6.251184
v -8.873880 -0.230038 7.348708
v -6.715929 -0.230038 7.726888
v -6.715929 0.230038 -7.726891
v -8.873882 0.230038 -7.348710
v -10.820599 0.230038 -6.251185
v -12.365520 0.230038 -4.541751
v -13.357422 0.230038 -2.387740
v -13.699207 0.230038 -0.000000
v -13.357422 0.230038 2.387740
v -12.365519 0.230038 4.541751
v -10.820597 0.230038 6.251184
v -8.873880 0.230038 7.348708
v -6.715929 0.230038 7.726888
v -6.715929 -0.230038 -0.000000
v -6.715929 0.230038 -0.000000
v 0.569205 0.230038 -7.348710
v 2.515923 0.230038 -6.251185
v 4.060845 0.230038 -4.541751
v 5.052746 0.230038 -2.387740
v 5.394532 0.230038 -0.000000
v 5.052746 0.230038 2.387740
v 4.060843 0.230038 4.541751
v 2.515921 0.230038 6.251184
v 0.569205 0.230038 7.348708
v 0.569205 -0.230038 -7.348710
v 2.515923 -0.230038 -6.251185
v 4.060845 -0.230038 -4.541751
v 5.052746 -0.230038 -2.387740
v 5.394532 -0.230038 -0.000000
v 5.052746 -0.230038 2.387740
v 4.060843 -0.230038 4.541751
v 2.515921 -0.230038 6.251184
v 0.569205 -0.230038 7.348708
v -1.588749 -0.230038 -7.726891
v -1.588749 0.230038 -7.726891
v -1.588749 0.230038 7.726888
v -1.588749 -0.230038 7.726888
v -1.588749 0.230038 -0.000000
v -1.588749 -0.230038 -0.000000
vt 0.648603 0.107966
vt 0.626409 0.064408
vt 0.591842 0.029841
vt 0.548284 0.007647
vt 0.500000 -0.000000
vt 0.451716 0.007647
vt 0.408159 0.029841
vt 0.373591 0.064409
vt 0.351397 0.107966
vt 0.343750 0.156250
vt 0.351397 0.204534
vt 0.373591 0.248091
vt 0.408159 0.282659
vt 0.451716 0.304853
vt 0.500000 0.312500
vt 0.548284 0.304853
vt 0.591841 0.282659
vt 0.626409 0.248091
vt 0.648603 0.204534
vt 0.656250 0.156250
vt 0.375000 0.312500
vt 0.387500 0.312500
vt 0.400000 0.312500
vt 0.412500 0.312500
vt 0.425000 0.312500
vt 0.437500 0.312500
vt 0.450000 0.312500
vt 0.462500 0.312500
vt 0.475000 0.312500
vt 0.487500 0.312500
vt 0.500000 0.312500
vt 0.512500 0.312500
vt 0.525000 0.312500
vt 0.537500 0.312500
vt 0.550000 0.312500
vt 0.562500 0.312500
vt 0.575000 0.312500
vt 0.587500 0.312500
vt 0.600000 0.312500
vt 0.612500 0.312500
vt 0.625000 0.312500
vt 0.375000 0.688440
vt 0.387500 0.688440
vt 0.400000 0.688440
vt 0.412500 0.688440
vt 0.425000 0.688440
vt 0.437500 0.688440
vt 0.450000 0.688440
vt 0.462500 0.688440
vt 0.475000 0.688440
vt 0.487500 0.688440
vt 0.500000 0.688440
vt 0.512500 0.688440
vt 0.525000 0.688440
vt 0.537500 0.688440
vt 0.550000 0.688440
vt 0.562500 0.688440
vt 0.575000 0.688440
vt 0.587500 0.688440
vt 0.600000 0.688440
vt 0.612500 0.688440
vt 0.625000 0.688440
vt 0.648603 0.795466
vt 0.626409 0.751908
vt 0.591842 0.717341
vt 0.548284 0.695147
vt 0.500000 0.687500
vt 0.451716 0.695147
vt 0.408159 0.717341
vt 0.373591 0.751909
vt 0.351397 0.795466
vt 0.343750 0.843750
vt 0.351397 0.892034
vt 0.373591 0.935591
vt 0.408159 0.970159
vt 0.451716 0.992353
vt 0.500000 1.000000
vt 0.548284 0.992353
vt 0.591841 0.970159
vt 0.626409 0.935591
vt 0.648603 0.892034
vt 0.656250 0.843750
vt 0.500000 0.150000
vt 0.500000 0.837500
vt 0.425000 0.312500
vt 0.437500 0.312500
vt 0.437500 0.688440
vt 0.425000 0.688440
vt 0.450000 0.312500
vt 0.450000 0.688440
vt 0.462500 0.312500
vt 0.462500 0.688440
vt 0.475000 0.312500
vt 0.475000 0.688440
vt 0.487500 0.312500
vt 0.487500 0.688440
vt 0.500000 0.312500
vt 0.500000 0.688440
vt 0.512500 0.312500
vt 0.512500 0.688440
vt 0.525000 0.312500
vt 0.525000 0.688440
vt 0.537500 0.312500
vt 0.537500 0.688440
vt 0.550000 0.312500
vt 0.550000 0.688440
vt 0.451716 0.007647
vt 0.500000 -0.000000
vt 0.500000 0.150000
vt 0.408159 0.029841
vt 0.373591 0.064409
vt 0.351397 0.107966
vt 0.343750 0.156250
vt 0.351397 0.204534
vt 0.373591 0.248091
vt 0.408159 0.282659
vt 0.451716 0.304853
vt 0.500000 0.312500
vt 0.500000 1.000000
vt 0.451716 0.992353
vt 0.500000 0.837500
vt 0.408159 0.970159
vt 0.373591 0.935591
vt 0.351397 0.892034
vt 0.343750 0.843750
vt 0.351397 0.795466
vt 0.373591 0.751909
vt 0.408159 0.717341
vt 0.451716 0.695147
vt 0.500000 0.687500
vt 0.000000 0.000000
vt 1.000000 0.000000
vt 0.550000 0.688440
vt 0.550000 0.312500
vt 0.000000 0.000000
vt 1.000000 0.000000
vt 0.500000 0.837500
vt 0.500000 0.687500
vt 0.000000 0.000000
vt 1.000000 0.000000
vt 0.500000 0.312500
vt 0.500000 0.150000
vt 0.425000 0.312500
vt 0.437500 0.312500
vt 0.437500 0.688440
vt 0.425000 0.688440
vt 0.450000 0.312500
vt 0.450000 0.688440
vt 0.462500 0.312500
vt 0.462500 0.688440
vt 0.475000 0.312500
vt 0.475000 0.688440
vt 0.487500 0.312500
vt 0.487500 0.688440
vt 0.500000 0.312500
vt 0.500000 0.688440
vt 0.512500 0.312500
vt 0.512500 0.688440
vt 0.525000 0.312500
vt 0.525000 0.688440
vt 0.537500 0.312500
vt 0.537500 0.688440
vt 0.451716 0.007647
vt 0.500000 -0.000000
vt 0.408159 0.029841
vt 0.373591 0.064409
vt 0.351397 0.107966
vt 0.343750 0.156250
vt 0.351397 0.204534
vt 0.373591 0.248091
vt 0.408159 0.282659
vt 0.451716 0.304853
vt 0.500000 1.000000
vt 0.451716 0.992353
vt 0.408159 0.970159
vt 0.373591 0.935591
vt 0.351397 0.892034
vt 0.343750 0.843750
vt 0.351397 0.795466
vt 0.373591 0.751909
vt 0.408159 0.717341
vt 0.451716 0.695147
vt 1.000000 0.000000
vt 0.000000 0.000000
vt 1.000000 0.000000
vt 0.000000 0.000000
vt 1.000000 0.000000
vt 0.000000 0.000000
vn 0.000000 0.989751 -0.142806
vn 0.000000 0.951694 -0.307047
vn 0.000000 0.951694 -0.307047
vn 0.000000 0.989751 -0.142806
vn 0.000000 0.853247 -0.521506
vn 0.000000 0.853247 -0.521506
vn 0.000000 0.590504 -0.807035
vn 0.000000 0.590504 -0.807035
vn 0.000000 0.000000 -1.000000
vn 0.000000 0.000000 -1.000000
vn 0.000000 -0.590504 -0.807035
vn 0.000000 -0.590504 -0.807035
vn 0.000000 -0.853248 -0.521506
vn 0.000000 -0.853248 -0.521506
vn 0.000000 -0.951695 -0.307046
vn 0.000000 -0.951695 -0.307046
vn 0.000000 -0.989751 -0.142806
vn 0.000000 -0.989751 -0.142806
vn 0.000000 -1.000000 0.000000
vn 0.000000 -1.000000 0.000000
vn 0.000000 -0.989751 0.142806
vn 0.000000 -0.989751 0.142806
vn 0.000000 -0.951695 0.307047
vn 0.000000 -0.951695 0.307047
vn 0.000000 -0.853247 0.521506
vn 0.000000 -0.853247 0.521506
vn 0.000000 -0.590504 0.807035
vn 0.000000 -0.590504 0.807035
vn 0.000000 0.000000 1.000000
vn 0.000000 0.000000 1.000000
vn 0.000000 0.590504 0.807035
vn 0.000000 0.590504 0.807035
vn 0.000000 0.853248 0.521506
vn 0.000000 0.853248 0.521506
vn 0.000000 0.951695 0.307047
vn 0.000000 0.951695 0.307047
vn 0.000000 0.989751 0.142806
vn 0.000000 0.989751 0.142806
vn 0.000000 1.000000 0.000000
vn 0.000000 1.000000 0.000000
vn 1.000000 0.000003 0.000000
vn 1.000000 -0.000004 0.000000
vn 1.000000 0.000000 0.000000
vn 1.000000 0.000002 0.000000
vn 1.000000 0.000000 0.000000
vn 1.000000 0.000000 0.000000
vn 1.000000 0.000002 0.000000
vn 1.000000 0.000003 0.000000
vn 1.000000 -0.000004 0.000000
vn 1.000000 0.000002 0.000000
vn 1.000000 0.000000 0.000000
vn 1.000000 0.000000 0.000000
vn 1.000000 0.000000 0.000000
vn 1.000000 0.000000 0.000000
vn 1.000000 0.000000 0.000000
vn 1.000000 0.000000 0.000000
vn 1.000000 -0.000002 0.000000
vn 1.000000 -0.000005 0.000000
vn 1.000000 0.000001 0.000000
vn 1.000000 0.000002 0.000000
vn 1.000000 0.000000 0.000000
vn -1.000000 -0.000000 0.000000
vn -1.000000 -0.000000 0.000000
vn -1.000000 -0.000000 0.000000
vn -1.000000 0.000000 0.000000
vn -1.000000 0.000000 0.000000
vn -1.000000 0.000000 0.000000
vn -1.000000 0.000000 0.000000
vn -1.000000 -0.000000 0.000000
vn -1.000000 -0.000000 0.000000
vn -1.000000 0.000000 0.000000
vn -1.000000 0.000000 0.000000
vn -1.000000 0.000000 0.000000
vn -1.000000 0.000000 0.000000
vn -1.000000 0.000000 0.000000
vn -1.000000 0.000000 0.000000
vn -1.000000 0.000000 0.000000
vn -1.000000 0.000000 0.000000
vn -1.000000 0.000000 0.000000
vn -1.000000 0.000000 0.000000
vn -1.000000 0.000000 0.000000
vn -1.000000 0.000000 0.000000
vn -0.051841 0.000000 -0.998655
vn -0.338318 0.000000 -0.941032
vn -0.338318 0.000000 -0.941032
vn -0.051841 0.000000 -0.998655
vn -0.626551 0.000000 -0.779381
vn -0.626551 0.000000 -0.779381
vn -0.835905 0.000000 -0.548874
vn -0.835905 0.000000 -0.548874
vn -0.959487 0.000000 -0.281754
vn -0.959487 0.000000 -0.281754
vn -1.000000 0.000000 0.000000
vn -1.000000 0.000000 0.000000
vn -0.959487 0.000000 0.281754
vn -0.959487 0.000000 0.281754
vn -0.835905 0.000000 0.548874
vn -0.835905 0.000000 0.548874
vn -0.626551 0.000000 0.779381
vn -0.626551 0.000000 0.779381
vn -0.338318 0.000000 0.941032
vn -0.338318 0.000000 0.941032
vn -0.051842 0.000000 0.998655
vn -0.051842 0.000000 0.998655
vn 0.000000 -1.000000 0.000000
vn 0.000000 -1.000000 0.000000
vn 0.000000 -1.000000 -0.000000
vn 0.000000 -1.000000 0.000000
vn 0.000000 -1.000000 0.000000
vn 0.000000 -1.000000 0.000000
vn 0.000000 -1.000000 0.000000
vn 0.000000 -1.000000 0.000000
vn 0.000000 -1.000000 0.000000
vn 0.000000 -1.000000 -0.000000
vn 0.000000 -1.000000 -0.000000
vn 0.000000 -1.000000 0.000000
vn 0.000000 1.000000 0.000000
vn 0.000000 1.000000 0.000000
vn 0.000000 1.000000 -0.000000
vn 0.000000 1.000000 0.000000
vn 0.000000 1.000000 0.000000
vn 0.000000 1.000000 0.000000
vn 0.000000 1.000000 0.000000
vn 0.000000 1.000000 0.000000
vn 0.000000 1.000000 0.000000
vn 0.000000 1.000000 -0.000000
vn 0.000000 1.000000 -0.000000
vn 0.000000 1.000000 0.000000
vn 0.000000 0.000000 1.000000
vn 0.000000 0.000000 1.000000
vn 0.000000 -1.000000 0.000000
vn 0.000000 -1.000000 0.000000
vn 0.000000 1.000000 0.000000
vn 0.000000 1.000000 0.000000
vn 0.172619 0.000000 -0.984989
vn 0.338318 0.000000 -0.941032
vn 0.338318 0.000000 -0.941032
vn 0.172619 0.000000 -0.984989
vn 0.626551 0.000000 -0.779381
vn 0.626551 0.000000 -0.779381
vn 0.835905 0.000000 -0.548874
vn 0.835905 0.000000 -0.548874
vn 0.959487 0.000000 -0.281754
vn 0.959487 0.000000 -0.281754
vn 1.000000 0.000000 0.000000
vn 1.000000 0.000000 0.000000
vn 0.959487 0.000000 0.281754
vn 0.959487 0.000000 0.281754
vn 0.835905 0.000000 0.548874
vn 0.835905 0.000000 0.548874
vn 0.626551 0.000000 0.779381
vn 0.626551 0.000000 0.779381
vn 0.338318 0.000000 0.941032
vn 0.338318 0.000000 0.941032
vn 0.172619 0.000000 0.984989
vn 0.172619 0.000000 0.984989
vn 0.000000 1.000000 0.000000
vn 0.000000 1.000000 0.000000
vn 0.000000 1.000000 -0.000000
vn 0.000000 1.000000 -0.000000
vn 0.000000 1.000000 -0.000000
vn 0.000000 1.000000 0.000000
vn 0.000000 1.000000 0.000000
vn 0.000000 1.000000 0.000000
vn 0.000000 1.000000 0.000000
vn 0.000000 1.000000 0.000000
vn 0.000000 1.000000 0.000000
vn 0.000000 1.000000 0.000000
vn 0.000000 -1.000000 0.000000
vn 0.000000 -1.000000 0.000000
vn 0.000000 -1.000000 0.000000
vn 0.000000 -1.000000 -0.000000
vn 0.000000 -1.000000 -0.000000
vn 0.000000 -1.000000 0.000000
vn 0.000000 -1.000000 0.000000
vn 0.000000 -1.000000 0.000000
vn 0.000000 -1.000000 0.000000
vn 0.000000 -1.000000 0.000000
vn 0.000000 -1.000000 0.000000
vn 0.000000 -1.000000 0.000000
vn 0.000000 1.000000 0.000000
vn 0.000000 1.000000 0.000000
vn 0.000000 -1.000000 0.000000
vn 0.000000 -1.000000 0.000000
vn 0.000000 0.000000 -1.000000
vn 0.000000 0.000000 -1.000000
s 1
g Racket1
usemtl initialShadingGroup
f 1/21/1 2/22/2 22/43/3 21/42/4
f 2/22/2 3/23/5 23/44/6 22/43/3
f 3/23/5 4/24/7 24/45/8 23/44/6
f 4/24/7 5/25/9 25/46/10 24/45/8
f 5/25/9 6/26/11 26/47/12 25/46/10
f 6/26/11 7/27/13 27/48/14 26/47/12
f 7/27/13 8/28/15 28/49/16 27/48/14
f 8/28/15 9/29/17 29/50/18 28/49/16
f 9/29/17 10/30/19 30/51/20 29/50/18
f 10/30/19 11/31/21 31/52/22 30/51/20
f 11/31/21 12/32/23 32/53/24 31/52/22
f 12/32/23 13/33/25 33/54/26 32/53/24
f 13/33/25 14/34/27 34/55/28 33/54/26
f 14/34/27 15/35/29 35/56/30 34/55/28
f 15/35/29 16/36/31 36/57/32 35/56/30
f 16/36/31 17/37/33 37/58/34 36/57/32
f 17/37/33 18/38/35 38/59/36 37/58/34
f 18/38/35 19/39/37 39/60/38 38/59/36
f 19/39/37 20/40/39 40/61/40 39/60/38
f 20/40/39 1/41/1 21/62/4 40/61/40
s 2
f 2/2/41 1/1/42 41/83/43
f 3/3/44 2/2/41 41/83/43
f 4/4/45 3/3/44 41/83/43
f 5/5/46 4/4/45 41/83/43
f 6/6/47 5/5/46 41/83/43
f 7/7/48 6/6/47 41/83/43
f 8/8/49 7/7/48 41/83/43
f 9/9/50 8/8/49 41/83/43
f 10/10/51 9/9/50 41/83/43
f 11/11/52 10/10/51 41/83/43
f 12/12/53 11/11/52 41/83/43
f 13/13/54 12/12/53 41/83/43
f 14/14/55 13/13/54 41/83/43
f 15/15/56 14/14/55 41/83/43
f 16/16/57 15/15/56 41/83/43
f 17/17/58 16/16/57 41/83/43
f 18/18/59 17/17/58 41/83/43
f 19/19/60 18/18/59 41/83/43
f 20/20/61 19/19/60 41/83/43
f 1/1/42 20/20/61 41/83/43
s 3
f 21/81/62 22/80/63 42/84/64
f 22/80/63 23/79/65 42/84/64
f 23/79/65 24/78/66 42/84/64
f 24/78/66 25/77/67 42/84/64
f 25/77/67 26/76/68 42/84/64
f 26/76/68 27/75/69 42/84/64
f 27/75/69 28/74/70 42/84/64
f 28/74/70 29/73/71 42/84/64
f 29/73/71 30/72/72 42/84/64
f 30/72/72 31/71/73 42/84/64
f 31/71/73 32/70/74 42/84/64
f 32/70/74 33/69/75 42/84/64
f 33/69/75 34/68/76 42/84/64
f 34/68/76 35/67/77 42/84/64
f 35/67/77 36/66/78 42/84/64
f 36/66/78 37/65/79 42/84/64
f 37/65/79 38/64/80 42/84/64
f 38/64/80 39/63/81 42/84/64
f 39/63/81 40/82/82 42/84/64
f 40/82/82 21/81/62 42/84/64
s 4
f 43/85/83 44/86/84 55/87/85 54/88/86
f 44/86/84 45/89/87 56/90/88 55/87/85
f 45/89/87 46/91/89 57/92/90 56/90/88
f 46/91/89 47/93/91 58/94/92 57/92/90
f 47/93/91 48/95/93 59/96/94 58/94/92
f 48/95/93 49/97/95 60/98/96 59/96/94
f 49/97/95 50/99/97 61/100/98 60/98/96
f 50/99/97 51/101/99 62/102/100 61/100/98
f 51/101/99 52/103/101 63/104/102 62/102/100
f 52/103/101 53/105/103 64/106/104 63/104/102
s 5
f 44/107/105 43/108/106 65/109/107
f 45/110/108 44/107/105 65/109/107
f 46/111/109 45/110/108 65/109/107
f 47/112/110 46/111/109 65/109/107
f 48/113/111 47/112/110 65/109/107
f 49/114/112 48/113/111 65/109/107
f 50/115/113 49/114/112 65/109/107
f 51/116/114 50/115/113 65/109/107
f 52/117/115 51/116/114 65/109/107
f 53/118/116 52/117/115 65/109/107
s 6
f 54/119/117 55/120/118 66/121/119
f 55/120/118 56/122/120 66/121/119
f 56/122/120 57/123/121 66/121/119
f 57/123/121 58/124/122 66/121/119
f 58/124/122 59/125/123 66/121/119
f 59/125/123 60/126/124 66/121/119
f 60/126/124 61/127/125 66/121/119
f 61/127/125 62/128/126 66/121/119
f 62/128/126 63/129/127 66/121/119
f 63/129/127 64/130/128 66/121/119
s 4
f 64/131/104 53/132/103 88/133/129 87/134/130
s 5
f 53/135/116 65/136/107 90/137/131 88/138/132
s 6
f 66/139/119 64/140/128 87/141/133 89/142/134
s 7
f 86/143/135 67/144/136 76/145/137 85/146/138
f 67/144/136 68/147/139 77/148/140 76/145/137
f 68/147/139 69/149/141 78/150/142 77/148/140
f 69/149/141 70/151/143 79/152/144 78/150/142
f 70/151/143 71/153/145 80/154/146 79/152/144
f 71/153/145 72/155/147 81/156/148 80/154/146
f 72/155/147 73/157/149 82/158/150 81/156/148
f 73/157/149 74/159/151 83/160/152 82/158/150
f 74/159/151 75/161/153 84/162/154 83/160/152
f 75/161/153 87/134/155 88/133/156 84/162/154
s 8
f 67/163/157 86/164/158 89/142/159
f 68/165/160 67/163/157 89/142/159
f 69/166/161 68/165/160 89/142/159
f 70/167/162 69/166/161 89/142/159
f 71/168/163 70/167/162 89/142/159
f 72/169/164 71/168/163 89/142/159
f 73/170/165 72/169/164 89/142/159
f 74/171/166 73/170/165 89/142/159
f 75/172/167 74/171/166 89/142/159
f 87/141/168 75/172/167 89/142/159
s 9
f 85/173/169 76/174/170 90/137/171
f 76/174/170 77/175/172 90/137/171
f 77/175/172 78/176/173 90/137/171
f 78/176/173 79/177/174 90/137/171
f 79/177/174 80/178/175 90/137/171
f 80/178/175 81/179/176 90/137/171
f 81/179/176 82/180/177 90/137/171
f 82/180/177 83/181/178 90/137/171
f 83/181/178 84/182/179 90/137/171
f 84/182/179 88/138/180 90/137/171
s 6
f 66/183/119 89/142/181 86/164/182 54/184/117
s 5
f 43/185/106 85/173/183 90/137/184 65/186/107
s 4
f 54/187/86 86/143/185 85/146/186 43/188/83
